<svg width="83" height="83" viewBox="0 0 83 83" fill="none" xmlns="http://www.w3.org/2000/svg">
<path d="M5.12021 82.3138C4.17606 82.3138 3.37716 82.0234 2.72352 81.4425C2.1425 80.789 1.85199 79.9903 1.85199 79.0464V26.0059C1.85199 24.9894 2.1425 24.1907 2.72352 23.6099C3.37716 23.029 4.17606 22.7386 5.12021 22.7386C6.13699 22.7386 6.93589 23.029 7.51691 23.6099C8.09792 24.1907 8.38843 24.9894 8.38843 26.0059V79.0464C8.38843 79.9903 8.09792 80.789 7.51691 81.4425C6.93589 82.0234 6.13699 82.3138 5.12021 82.3138ZM5.01127 10.2136C3.63136 10.2136 2.43301 9.74164 1.41623 8.79774C0.472076 7.78122 0 6.54687 0 5.0947C0 3.42471 0.50839 2.19036 1.52517 1.39167C2.61458 0.520368 3.81292 0.0847168 5.12021 0.0847168C6.35487 0.0847168 7.48059 0.520368 8.49737 1.39167C9.58678 2.19036 10.1315 3.42471 10.1315 5.0947C10.1315 6.54687 9.62309 7.78122 8.60631 8.79774C7.66216 9.74164 6.46381 10.2136 5.01127 10.2136Z" fill="black"/>
<path d="M79.0118 82.3138C78.0676 82.3138 77.2687 82.0234 76.6151 81.4425C76.0341 80.789 75.7436 79.9903 75.7436 79.0464V49.7489C75.7436 44.9567 74.7994 40.9996 72.9111 37.8774C71.0954 34.7553 68.5898 32.4318 65.3942 30.907C62.2712 29.3096 58.7125 28.5109 54.718 28.5109C50.7961 28.5109 47.2737 29.2733 44.1508 30.7981C41.0278 32.2503 38.5585 34.2833 36.7428 36.8972C34.9271 39.5111 34.0193 42.4518 34.0193 45.7191H28.5722C28.8627 41.2174 30.2063 37.1876 32.603 33.6298C34.9997 29.9994 38.1227 27.1677 41.9719 25.1346C45.8212 23.029 50.0699 21.9762 54.718 21.9762C59.9472 21.9762 64.6316 23.0653 68.7713 25.2435C72.9837 27.3492 76.2883 30.4714 78.685 34.61C81.0816 38.6761 82.28 43.7224 82.28 49.7489V79.0464C82.28 79.9903 81.9532 80.789 81.2995 81.4425C80.7185 82.0234 79.9559 82.3138 79.0118 82.3138ZM30.7511 82.3138C29.8069 82.3138 29.008 82.0234 28.3544 81.4425C27.7733 80.789 27.4828 79.9903 27.4828 79.0464V26.0059C27.4828 24.9894 27.7733 24.1907 28.3544 23.6099C29.008 23.029 29.8069 22.7386 30.7511 22.7386C31.7678 22.7386 32.5667 23.029 33.1477 23.6099C33.7288 24.1907 34.0193 24.9894 34.0193 26.0059V79.0464C34.0193 79.9903 33.7288 80.789 33.1477 81.4425C32.5667 82.0234 31.7678 82.3138 30.7511 82.3138Z" fill="black"/>
</svg>
