<svg width="112" height="61" viewBox="0 0 112 61" fill="none" xmlns="http://www.w3.org/2000/svg">
<path d="M30.4248 60.8583C24.6873 60.8583 19.5671 59.5877 15.0642 57.0464C10.6339 54.4325 7.14783 50.8384 4.60589 46.264C2.06394 41.6897 0.792969 36.4619 0.792969 30.5806C0.792969 24.6267 1.99132 19.3989 4.38801 14.8972C6.7847 10.3229 10.0892 6.72873 14.3016 4.11483C18.514 1.50092 23.3437 0.19397 28.7907 0.19397C34.1651 0.19397 38.9222 1.46462 43.0619 4.00592C47.2017 6.47461 50.4336 9.92351 52.7577 14.3526C55.0817 18.7091 56.2438 23.7554 56.2438 29.4915C56.2438 30.4354 55.9533 31.1978 55.3722 31.7786C54.7912 32.2869 54.0286 32.541 53.0845 32.541H5.15059V26.8776H54.8275L50.0342 30.4717C50.1794 25.7521 49.3805 21.5772 47.6374 17.9467C45.8944 14.3163 43.3888 11.4846 40.1205 9.45155C36.9249 7.34591 33.1483 6.29308 28.7907 6.29308C24.651 6.29308 20.947 7.34591 17.6788 9.45155C14.4832 11.4846 11.9412 14.3163 10.0529 17.9467C8.23724 21.5772 7.3294 25.7885 7.3294 30.5806C7.3294 35.3002 8.30987 39.4751 10.2708 43.1056C12.2317 46.736 14.9553 49.604 18.4414 51.7097C21.9275 53.7427 25.9219 54.7592 30.4248 54.7592C33.2573 54.7592 36.0897 54.2873 38.9222 53.3434C41.8273 52.3268 44.115 51.0199 45.7854 49.4225C46.3665 48.8416 47.0564 48.5512 47.8553 48.5512C48.7269 48.4786 49.4531 48.6964 50.0342 49.2047C50.833 49.8582 51.2325 50.5842 51.2325 51.3829C51.3051 52.1816 50.9783 52.9077 50.252 53.5612C47.928 55.6668 44.8776 57.4094 41.101 58.789C37.397 60.1686 33.8383 60.8583 30.4248 60.8583Z" fill="black"/>
<path d="M108.546 60.3138C107.675 60.3138 106.985 60.1686 106.476 59.8781C105.968 59.5151 105.423 58.9705 104.842 58.2444L86.1046 33.4123L83.381 31.343L64.3164 6.18417C63.7354 5.45809 63.4812 4.6957 63.5538 3.89701C63.6265 3.0257 63.9533 2.29961 64.5343 1.71875C65.1153 1.06527 65.8779 0.738533 66.8221 0.738533C67.7662 0.738533 68.5651 1.06527 69.2188 1.71875L87.4119 25.8974L90.3533 28.1845L110.507 54.977C111.451 56.1388 111.778 57.119 111.488 57.9177C111.27 58.7164 110.834 59.3336 110.18 59.7692C109.527 60.1323 108.982 60.3138 108.546 60.3138ZM64.4254 60.3138C63.4812 60.3138 62.7186 60.0233 62.1376 59.4425C61.5566 58.8616 61.2298 58.1718 61.1572 57.3731C61.0845 56.5018 61.3387 55.7031 61.9197 54.977L83.0542 28.7291L86.8672 33.5213L66.7131 59.3336C66.2774 59.987 65.5148 60.3138 64.4254 60.3138ZM88.937 31.7786L85.0152 26.9865L104.842 2.69896C105.423 2.04549 105.968 1.57353 106.476 1.2831C107.057 0.920054 107.639 0.738533 108.22 0.738533C109.236 0.738533 109.999 1.06527 110.507 1.71875C111.016 2.29961 111.27 3.0257 111.27 3.89701C111.27 4.6957 110.979 5.45809 110.398 6.18417L88.937 31.7786Z" fill="black"/>
</svg>
