<svg width="235" height="90" viewBox="0 0 235 90" fill="none" xmlns="http://www.w3.org/2000/svg">
<path d="M4.39306 61.8679C3.4017 61.8679 2.56285 61.5629 1.87652 60.953C1.26646 60.2668 0.961426 59.4282 0.961426 58.4371V3.43075C0.961426 2.3634 1.26646 1.52477 1.87652 0.914862C2.56285 0.304954 3.4017 0 4.39306 0C5.46068 0 6.29951 0.304954 6.90958 0.914862C7.51965 1.52477 7.8247 2.3634 7.8247 3.43075V58.4371C7.8247 59.4282 7.51965 60.2668 6.90958 60.953C6.29951 61.5629 5.46068 61.8679 4.39306 61.8679ZM55.0668 89.3139C54.0755 89.3139 53.2366 89.0089 52.5503 88.399C51.9402 87.7128 51.6352 86.8742 51.6352 85.8831V55.1207C51.6352 50.0889 50.6438 45.9339 48.6611 42.6557C46.7546 39.3774 44.1237 36.9377 40.7684 35.3367C37.4892 33.6595 33.7526 32.8208 29.5583 32.8208C25.4404 32.8208 21.7419 33.6213 18.4627 35.2224C15.1836 36.7471 12.5908 38.8818 10.6844 41.6264C8.77792 44.371 7.8247 47.4587 7.8247 50.8895H2.1053C2.41033 46.1626 3.82111 41.9314 6.33764 38.1957C8.85417 34.3837 12.1333 31.4104 16.175 29.2757C20.2167 27.0648 24.6778 25.9593 29.5583 25.9593C35.049 25.9593 39.9676 27.1029 44.3144 29.3901C48.7374 31.601 52.2071 34.8793 54.7236 39.2249C57.2402 43.4943 58.4985 48.7929 58.4985 55.1207V85.8831C58.4985 86.8742 58.1553 87.7128 57.4689 88.399C56.8589 89.0089 56.0582 89.3139 55.0668 89.3139ZM4.39306 89.3139C3.4017 89.3139 2.56285 89.0089 1.87652 88.399C1.26646 87.7128 0.961426 86.8742 0.961426 85.8831V30.1906C0.961426 29.1233 1.26646 28.2846 1.87652 27.6747C2.56285 27.0648 3.4017 26.7598 4.39306 26.7598C5.46068 26.7598 6.29951 27.0648 6.90958 27.6747C7.51965 28.2846 7.8247 29.1233 7.8247 30.1906V85.8831C7.8247 86.8742 7.51965 87.7128 6.90958 88.399C6.29951 89.0089 5.46068 89.3139 4.39306 89.3139Z" fill="black"/>
<path d="M103.801 90C97.7001 90 92.2095 88.6277 87.3289 85.8831C82.5246 83.0623 78.7117 79.2503 75.8902 74.4473C73.1449 69.568 71.7722 64.1169 71.7722 58.094C71.7722 51.9949 73.1449 46.5438 75.8902 41.7408C78.7117 36.8615 82.5246 33.0496 87.3289 30.305C92.2095 27.4841 97.7001 26.0737 103.801 26.0737C109.901 26.0737 115.354 27.4841 120.158 30.305C124.962 33.0496 128.737 36.8615 131.483 41.7408C134.304 46.5438 135.715 51.9949 135.715 58.094L132.855 62.6684C132.855 67.8526 131.559 72.5032 128.966 76.6201C126.45 80.737 123.018 84.0153 118.671 86.4549C114.324 88.8183 109.368 90 103.801 90ZM103.801 83.5959C108.605 83.5959 112.876 82.4905 116.612 80.2795C120.425 77.9924 123.399 74.9428 125.534 71.1309C127.746 67.2427 128.852 62.8971 128.852 58.094C128.852 53.2147 127.746 48.8691 125.534 45.0572C123.399 41.169 120.425 38.1194 116.612 35.9085C112.876 33.6213 108.605 32.4778 103.801 32.4778C99.0727 32.4778 94.8023 33.6213 90.9894 35.9085C87.1764 38.1194 84.1642 41.169 81.9527 45.0572C79.7412 48.8691 78.6355 53.2147 78.6355 58.094C78.6355 62.8971 79.7412 67.2427 81.9527 71.1309C84.1642 74.9428 87.1764 77.9924 90.9894 80.2795C94.8023 82.4905 99.0727 83.5959 103.801 83.5959ZM132.283 89.3139C131.292 89.3139 130.453 89.0089 129.767 88.399C129.157 87.7128 128.852 86.8742 128.852 85.8831V64.9555L131.025 58.094H135.715V85.8831C135.715 86.8742 135.41 87.7128 134.8 88.399C134.19 89.0089 133.351 89.3139 132.283 89.3139Z" fill="black"/>
<path d="M165.423 89.3139C162.525 89.3139 159.932 88.5133 157.644 86.9123C155.433 85.3113 153.679 83.1004 152.382 80.2795C151.162 77.4587 150.552 74.1804 150.552 70.4447V3.43075C150.552 2.3634 150.857 1.52477 151.467 0.914862C152.154 0.304954 152.993 0 153.984 0C155.052 0 155.89 0.304954 156.5 0.914862C157.11 1.52477 157.416 2.3634 157.416 3.43075V70.4447C157.416 73.9517 158.14 76.8488 159.589 79.136C161.114 81.3469 163.059 82.4523 165.423 82.4523H168.282C169.121 82.4523 169.808 82.7573 170.341 83.3672C170.875 83.9771 171.142 84.8158 171.142 85.8831C171.142 86.8742 170.837 87.7128 170.227 88.399C169.617 89.0089 168.778 89.3139 167.71 89.3139H165.423Z" fill="black"/>
<path d="M207.89 89.8856C201.866 89.8856 196.489 88.5515 191.761 85.8831C187.11 83.1385 183.449 79.3647 180.78 74.5616C178.111 69.7586 176.777 64.2694 176.777 58.094C176.777 51.8424 178.035 46.3532 180.551 41.6264C183.068 36.8234 186.538 33.0496 190.961 30.305C195.384 27.5604 200.455 26.1881 206.174 26.1881C211.817 26.1881 216.812 27.5222 221.159 30.1906C225.506 32.7827 228.899 36.4041 231.339 41.0546C233.78 45.629 235 50.9276 235 56.9504C235 57.9415 234.695 58.7421 234.085 59.352C233.475 59.8856 232.674 60.1525 231.683 60.1525H181.352V54.2058H233.513L228.48 57.9797C228.632 53.0241 227.793 48.6404 225.963 44.8285C224.133 41.0165 221.502 38.0432 218.071 35.9085C214.715 33.6976 210.75 32.5921 206.174 32.5921C201.827 32.5921 197.938 33.6976 194.507 35.9085C191.151 38.0432 188.482 41.0165 186.499 44.8285C184.593 48.6404 183.64 53.0623 183.64 58.094C183.64 63.0496 184.669 67.4333 186.728 71.2452C188.787 75.0572 191.647 78.0686 195.307 80.2795C198.968 82.4142 203.162 83.4816 207.89 83.4816C210.864 83.4816 213.838 82.986 216.812 81.9949C219.863 80.9276 222.265 79.5553 224.019 77.878C224.629 77.2681 225.353 76.9632 226.192 76.9632C227.107 76.8869 227.87 77.1156 228.48 77.6493C229.319 78.3354 229.738 79.0978 229.738 79.9365C229.814 80.7751 229.471 81.5375 228.709 82.2236C226.268 84.4346 223.065 86.2643 219.1 87.7128C215.211 89.1614 211.474 89.8856 207.89 89.8856Z" fill="black"/>
</svg>
