<svg width="500" height="90" viewBox="0 0 500 90" fill="none" xmlns="http://www.w3.org/2000/svg">
<path d="M269.394 61.8679C268.402 61.8679 267.563 61.5629 266.877 60.953C266.267 60.2668 265.962 59.4282 265.962 58.4371V3.43075C265.962 2.3634 266.267 1.52477 266.877 0.914862C267.563 0.304954 268.402 0 269.394 0C270.461 0 271.3 0.304954 271.91 0.914862C272.52 1.52477 272.825 2.3634 272.825 3.43075V58.4371C272.825 59.4282 272.52 60.2668 271.91 60.953C271.3 61.5629 270.461 61.8679 269.394 61.8679ZM320.067 89.3139C319.076 89.3139 318.237 89.0089 317.551 88.399C316.941 87.7128 316.636 86.8742 316.636 85.8831V55.1207C316.636 50.0889 315.644 45.9339 313.662 42.6557C311.755 39.3774 309.124 36.9377 305.769 35.3367C302.49 33.6595 298.753 32.8208 294.559 32.8208C290.441 32.8208 286.742 33.6213 283.463 35.2224C280.184 36.7471 277.591 38.8818 275.685 41.6264C273.778 44.371 272.825 47.4587 272.825 50.8895H267.106C267.411 46.1626 268.822 41.9314 271.338 38.1957C273.855 34.3837 277.134 31.4104 281.175 29.2757C285.217 27.0648 289.678 25.9593 294.559 25.9593C300.049 25.9593 304.968 27.1029 309.315 29.3901C313.738 31.601 317.208 34.8793 319.724 39.2249C322.241 43.4943 323.499 48.7929 323.499 55.1207V85.8831C323.499 86.8742 323.156 87.7128 322.469 88.399C321.859 89.0089 321.059 89.3139 320.067 89.3139ZM269.394 89.3139C268.402 89.3139 267.563 89.0089 266.877 88.399C266.267 87.7128 265.962 86.8742 265.962 85.8831V30.1906C265.962 29.1233 266.267 28.2846 266.877 27.6747C267.563 27.0648 268.402 26.7598 269.394 26.7598C270.461 26.7598 271.3 27.0648 271.91 27.6747C272.52 28.2846 272.825 29.1233 272.825 30.1906V85.8831C272.825 86.8742 272.52 87.7128 271.91 88.399C271.3 89.0089 270.461 89.3139 269.394 89.3139Z" fill="black"/>
<path d="M368.801 90C362.701 90 357.21 88.6277 352.329 85.8831C347.525 83.0623 343.712 79.2503 340.891 74.4473C338.145 69.568 336.773 64.1169 336.773 58.094C336.773 51.9949 338.145 46.5438 340.891 41.7408C343.712 36.8615 347.525 33.0496 352.329 30.305C357.21 27.4841 362.701 26.0737 368.801 26.0737C374.902 26.0737 380.354 27.4841 385.159 30.305C389.963 33.0496 393.738 36.8615 396.483 41.7408C399.305 46.5438 400.715 51.9949 400.715 58.094L397.856 62.6684C397.856 67.8526 396.559 72.5032 393.967 76.6201C391.45 80.737 388.018 84.0153 383.672 86.4549C379.325 88.8183 374.368 90 368.801 90ZM368.801 83.5959C373.606 83.5959 377.876 82.4905 381.613 80.2795C385.426 77.9924 388.4 74.9428 390.535 71.1309C392.746 67.2427 393.852 62.8971 393.852 58.094C393.852 53.2147 392.746 48.8691 390.535 45.0572C388.4 41.169 385.426 38.1194 381.613 35.9085C377.876 33.6213 373.606 32.4778 368.801 32.4778C364.073 32.4778 359.803 33.6213 355.99 35.9085C352.177 38.1194 349.165 41.169 346.953 45.0572C344.742 48.8691 343.636 53.2147 343.636 58.094C343.636 62.8971 344.742 67.2427 346.953 71.1309C349.165 74.9428 352.177 77.9924 355.99 80.2795C359.803 82.4905 364.073 83.5959 368.801 83.5959ZM397.284 89.3139C396.292 89.3139 395.454 89.0089 394.767 88.399C394.157 87.7128 393.852 86.8742 393.852 85.8831V64.9555L396.026 58.094H400.715V85.8831C400.715 86.8742 400.41 87.7128 399.8 88.399C399.19 89.0089 398.351 89.3139 397.284 89.3139Z" fill="black"/>
<path d="M430.423 89.3139C427.525 89.3139 424.933 88.5133 422.645 86.9123C420.433 85.3113 418.679 83.1004 417.383 80.2795C416.163 77.4587 415.553 74.1804 415.553 70.4447V3.43075C415.553 2.3634 415.858 1.52477 416.468 0.914862C417.154 0.304954 417.993 0 418.984 0C420.052 0 420.891 0.304954 421.501 0.914862C422.111 1.52477 422.416 2.3634 422.416 3.43075V70.4447C422.416 73.9517 423.14 76.8488 424.589 79.136C426.115 81.3469 428.059 82.4523 430.423 82.4523H433.283C434.122 82.4523 434.808 82.7573 435.342 83.3672C435.876 83.9771 436.143 84.8158 436.143 85.8831C436.143 86.8742 435.838 87.7128 435.227 88.399C434.617 89.0089 433.779 89.3139 432.711 89.3139H430.423Z" fill="black"/>
<path d="M472.891 89.8856C466.866 89.8856 461.49 88.5515 456.762 85.8831C452.11 83.1385 448.45 79.3647 445.781 74.5616C443.112 69.7586 441.777 64.2694 441.777 58.094C441.777 51.8424 443.035 46.3532 445.552 41.6264C448.068 36.8234 451.538 33.0496 455.961 30.305C460.384 27.5604 465.455 26.1881 471.175 26.1881C476.818 26.1881 481.813 27.5222 486.159 30.1906C490.506 32.7827 493.9 36.4041 496.34 41.0546C498.78 45.629 500 50.9276 500 56.9504C500 57.9415 499.695 58.7421 499.085 59.352C498.475 59.8856 497.674 60.1525 496.683 60.1525H446.353V54.2058H498.513L493.48 57.9797C493.633 53.0241 492.794 48.6404 490.964 44.8285C489.134 41.0165 486.503 38.0432 483.071 35.9085C479.716 33.6976 475.75 32.5921 471.175 32.5921C466.828 32.5921 462.939 33.6976 459.507 35.9085C456.152 38.0432 453.483 41.0165 451.5 44.8285C449.594 48.6404 448.64 53.0623 448.64 58.094C448.64 63.0496 449.67 67.4333 451.729 71.2452C453.788 75.0572 456.647 78.0686 460.308 80.2795C463.968 82.4142 468.162 83.4816 472.891 83.4816C475.865 83.4816 478.839 82.986 481.813 81.9949C484.863 80.9276 487.265 79.5553 489.019 77.878C489.629 77.2681 490.354 76.9632 491.193 76.9632C492.108 76.8869 492.87 77.1156 493.48 77.6493C494.319 78.3354 494.739 79.0978 494.739 79.9365C494.815 80.7751 494.472 81.5375 493.709 82.2236C491.269 84.4346 488.066 86.2643 484.1 87.7128C480.211 89.1614 476.475 89.8856 472.891 89.8856Z" fill="black"/>
<path d="M244.629 64.9174C243.104 64.9174 241.797 64.4092 240.707 63.3926C239.618 62.3035 239.073 60.9602 239.073 59.3629C239.073 57.8381 239.582 56.5674 240.598 55.5509C241.688 54.4618 243.031 53.9172 244.629 53.9172C246.227 53.9172 247.534 54.4618 248.551 55.5509C249.568 56.64 250.076 57.9107 250.076 59.3629C250.076 60.9602 249.532 62.3035 248.442 63.3926C247.425 64.4092 246.154 64.9174 244.629 64.9174Z" fill="black"/>
<path d="M148.425 89.8583C142.687 89.8583 137.567 88.5877 133.064 86.0464C128.634 83.4325 125.148 79.8384 122.606 75.264C120.064 70.6897 118.793 65.4619 118.793 59.5806C118.793 53.6267 119.991 48.3989 122.388 43.8972C124.785 39.3229 128.089 35.7287 132.302 33.1148C136.514 30.5009 141.344 29.194 146.791 29.194C152.165 29.194 156.922 30.4646 161.062 33.0059C165.202 35.4746 168.434 38.9235 170.758 43.3526C173.082 47.7091 174.244 52.7554 174.244 58.4915C174.244 59.4354 173.953 60.1978 173.372 60.7786C172.791 61.2869 172.029 61.541 171.084 61.541H123.151V55.8776H172.828L168.034 59.4717C168.179 54.7521 167.38 50.5772 165.637 46.9467C163.894 43.3163 161.389 40.4846 158.121 38.4516C154.925 36.3459 151.148 35.2931 146.791 35.2931C142.651 35.2931 138.947 36.3459 135.679 38.4516C132.483 40.4846 129.941 43.3163 128.053 46.9467C126.237 50.5772 125.329 54.7885 125.329 59.5806C125.329 64.3002 126.31 68.4751 128.271 72.1056C130.232 75.736 132.955 78.604 136.441 80.7097C139.927 82.7427 143.922 83.7592 148.425 83.7592C151.257 83.7592 154.09 83.2873 156.922 82.3434C159.827 81.3268 162.115 80.0199 163.785 78.4225C164.366 77.8416 165.056 77.5512 165.855 77.5512C166.727 77.4786 167.453 77.6964 168.034 78.2047C168.833 78.8582 169.232 79.5842 169.232 80.3829C169.305 81.1816 168.978 81.9077 168.252 82.5612C165.928 84.6668 162.878 86.4094 159.101 87.789C155.397 89.1686 151.838 89.8583 148.425 89.8583Z" fill="black"/>
<path d="M226.546 89.3138C225.675 89.3138 224.985 89.1686 224.476 88.8781C223.968 88.5151 223.423 87.9705 222.842 87.2444L204.105 62.4123L201.381 60.343L182.316 35.1842C181.735 34.4581 181.481 33.6957 181.554 32.897C181.626 32.0257 181.953 31.2996 182.534 30.7187C183.115 30.0653 183.878 29.7385 184.822 29.7385C185.766 29.7385 186.565 30.0653 187.219 30.7187L205.412 54.8974L208.353 57.1845L228.507 83.977C229.451 85.1388 229.778 86.119 229.488 86.9177C229.27 87.7164 228.834 88.3336 228.18 88.7692C227.527 89.1323 226.982 89.3138 226.546 89.3138ZM182.425 89.3138C181.481 89.3138 180.719 89.0233 180.138 88.4425C179.557 87.8616 179.23 87.1718 179.157 86.3731C179.085 85.5018 179.339 84.7031 179.92 83.977L201.054 57.7291L204.867 62.5213L184.713 88.3336C184.277 88.987 183.515 89.3138 182.425 89.3138ZM206.937 60.7786L203.015 55.9865L222.842 31.699C223.423 31.0455 223.968 30.5735 224.476 30.2831C225.057 29.9201 225.639 29.7385 226.22 29.7385C227.236 29.7385 227.999 30.0653 228.507 30.7187C229.016 31.2996 229.27 32.0257 229.27 32.897C229.27 33.6957 228.979 34.4581 228.398 35.1842L206.937 60.7786Z" fill="black"/>
<path d="M101.219 64.9174C99.6939 64.9174 98.3866 64.4092 97.2972 63.3926C96.2078 62.3035 95.6631 60.9602 95.6631 59.3629C95.6631 57.8381 96.1715 56.5674 97.1882 55.5509C98.2777 54.4618 99.6213 53.9172 101.219 53.9172C102.817 53.9172 104.124 54.4618 105.141 55.5509C106.158 56.64 106.666 57.9107 106.666 59.3629C106.666 60.9602 106.121 62.3035 105.032 63.3926C104.015 64.4092 102.744 64.9174 101.219 64.9174Z" fill="black"/>
<path d="M5.12021 89.3138C4.17606 89.3138 3.37716 89.0234 2.72352 88.4425C2.1425 87.789 1.85199 86.9903 1.85199 86.0464V33.0059C1.85199 31.9894 2.1425 31.1907 2.72352 30.6099C3.37716 30.029 4.17606 29.7386 5.12021 29.7386C6.13699 29.7386 6.93589 30.029 7.51691 30.6099C8.09792 31.1907 8.38843 31.9894 8.38843 33.0059V86.0464C8.38843 86.9903 8.09792 87.789 7.51691 88.4425C6.93589 89.0234 6.13699 89.3138 5.12021 89.3138ZM5.01127 17.2136C3.63136 17.2136 2.43301 16.7416 1.41623 15.7977C0.472076 14.7812 0 13.5469 0 12.0947C0 10.4247 0.50839 9.19036 1.52517 8.39167C2.61458 7.52037 3.81292 7.08472 5.12021 7.08472C6.35487 7.08472 7.48059 7.52037 8.49737 8.39167C9.58678 9.19036 10.1315 10.4247 10.1315 12.0947C10.1315 13.5469 9.62309 14.7812 8.60631 15.7977C7.66216 16.7416 6.46381 17.2136 5.01127 17.2136Z" fill="black"/>
<path d="M79.0118 89.3138C78.0676 89.3138 77.2687 89.0234 76.6151 88.4425C76.0341 87.789 75.7436 86.9903 75.7436 86.0464V56.7489C75.7436 51.9567 74.7994 47.9996 72.9111 44.8774C71.0954 41.7553 68.5898 39.4318 65.3942 37.907C62.2712 36.3096 58.7125 35.5109 54.718 35.5109C50.7961 35.5109 47.2737 36.2733 44.1508 37.7981C41.0278 39.2503 38.5585 41.2833 36.7428 43.8972C34.9271 46.5111 34.0193 49.4518 34.0193 52.7191H28.5722C28.8627 48.2174 30.2063 44.1876 32.603 40.6298C34.9997 36.9994 38.1227 34.1677 41.9719 32.1346C45.8212 30.029 50.0699 28.9762 54.718 28.9762C59.9472 28.9762 64.6316 30.0653 68.7713 32.2435C72.9837 34.3492 76.2883 37.4714 78.685 41.61C81.0816 45.6761 82.28 50.7224 82.28 56.7489V86.0464C82.28 86.9903 81.9532 87.789 81.2995 88.4425C80.7185 89.0234 79.9559 89.3138 79.0118 89.3138ZM30.7511 89.3138C29.8069 89.3138 29.008 89.0234 28.3544 88.4425C27.7733 87.789 27.4828 86.9903 27.4828 86.0464V33.0059C27.4828 31.9894 27.7733 31.1907 28.3544 30.6099C29.008 30.029 29.8069 29.7386 30.7511 29.7386C31.7678 29.7386 32.5667 30.029 33.1477 30.6099C33.7288 31.1907 34.0193 31.9894 34.0193 33.0059V86.0464C34.0193 86.9903 33.7288 87.789 33.1477 88.4425C32.5667 89.0234 31.7678 89.3138 30.7511 89.3138Z" fill="black"/>
</svg>
